# xmcd
#
# Track frame offsets: 
#        150
#        12920
#        23765
#        38298
#        53338
#        65475
#        77888
#        90403
#        101248
#        120205
#        130625
#        141200
#        151488
#        167575
#        179960
#        197953
#        215653
#        229125
#        244165
#        260350
#        273185
#        288913
#        303513
#        323755
#
# Disc length: 4522 seconds
#
# Revision: 2
# Processed by: cddbd v1.5.2PL0 Copyright (c) Steve Scherf et al.
# Submitted via: ExactAudioCopy v0.99pb5
#
DISCID=4611a818
DTITLE=Aretha Franklin - Queen of soul - The very best of Aretha Frankl
DTITLE=in
DYEAR=1994
DGENRE=Soul
TTITLE0=I never loved a man (The way I love you)
TTITLE1=Respect
TTITLE2=Do right woman, do right man
TTITLE3=Dr.Feelgood (Love is a serious business)
TTITLE4=Baby, I love you
TTITLE5=(You make me feel like) A natural woman
TTITLE6=Chain of fools
TTITLE7=Since you've been gone (Sweet sweet baby)
TTITLE8=Ain't no way
TTITLE9=Save me
TTITLE10=The house that Jack built
TTITLE11=Think
TTITLE12=I say a little prayer
TTITLE13=See saw
TTITLE14=Day dreaming
TTITLE15=Call me
TTITLE16=Don't play that song (You lied)
TTITLE17=Border song (Holy Moses)
TTITLE18=You're all I need to get by
TTITLE19=I'm in love
TTITLE20=Spanish harlem
TTITLE21=Rock steady
TTITLE22=Angel
TTITLE23=Until you come back to me (That's what I'm gonna do)
EXTD=
EXTT0=
EXTT1=
EXTT2=
EXTT3=
EXTT4=
EXTT5=
EXTT6=
EXTT7=
EXTT8=
EXTT9=
EXTT10=
EXTT11=
EXTT12=
EXTT13=
EXTT14=
EXTT15=
EXTT16=
EXTT17=
EXTT18=
EXTT19=
EXTT20=
EXTT21=
EXTT22=
EXTT23=
PLAYORDER=
